<svg width="64" height="64" viewBox="0 0 512 512" fill="#25344f" xmlns="http://www.w3.org/2000/svg">
  <path
    d="M456 168h-8v-45c0-15-13.6-26.2-28.1-23.6l-163.9 28.5L92.2 99C77.6 96.4 64 107.7 64 122.6V168h-8c-8.8 0-16 7.2-16 16v184c0 8.8 7.2 16 16 16h130.7c13.6 0 19.9 6.6 27.9 14.6 6 6 14.1 9.4 22.6 9.4 13.6 0 23.9 0 37.5 0 8.5 0 16.6-3.4 22.6-9.4 8-8 14.3-14.6 27.9-14.6H456c8.8 0 16-7.2 16-16V184c0-8.8-7.2-16-16-16zM422.6 115c4.8-.8 9.4 2.8 9.4 7.9v199.1c0 3.9-2.8 7.2-6.6 7.9L264 358.5V142.7l158.6-27.7zM80 122.6c0-5 4.4-8.7 9.4-7.9L248 142.7v215.8L86.6 330c-3.8-.7-6.6-4-6.6-7.9V122.6zm208.1 145.1c-.8-4.4 2.1-8.5 6.5-9.3l104-18.3c4.3-.8 8.5 2.1 9.3 6.5.8 4.3-2.1 8.5-6.5 9.3l-104 18.3c-.5.1-.9.1-1.4.1-3.7 0-7.1-2.7-7.9-6.6zm0-40c-.8-4.4 2.1-8.5 6.5-9.3l104-18.3c4.3-.8 8.5 2.1 9.3 6.5.8 4.3-2.1 8.5-6.5 9.3l-104 18.3c-.5.1-.9.1-1.4.1-3.7 0-7.1-2.7-7.9-6.6zm0-40c-.8-4.4 2.1-8.5 6.5-9.3l104-18.3c4.3-.8 8.5 2.1 9.3 6.5.8 4.3-2.1 8.5-6.5 9.3l-104 18.3c-.5.1-.9.1-1.4.1-3.7 0-7.1-2.7-7.9-6.6zm0 120c-.8-4.4 2.1-8.5 6.5-9.3l104-18.3c4.3-.8 8.5 2.1 9.3 6.5.8 4.3-2.1 8.5-6.5 9.3l-104 18.3c-.5.1-.9.1-1.4.1-3.7 0-7.1-2.7-7.9-6.6zM118.2 218.2c-11.9-14.1-13.9-33.7-3.6-45.2 12.4-14 35.5-11 49.4 5.5 13.8-11.6 37-6.4 49.4 12 10.3 15.2 8.2 34-3.6 44l-32.5 27.1c-7.3 6.1-19.2 4-26.5-4.7l-32.6-38z" />
</svg>